<svg width="32" height="32" viewBox="0 0 32 32" fill="none" xmlns="http://www.w3.org/2000/svg">
<path d="M24 20H21C20.7348 20 20.4804 19.8946 20.2929 19.7071C20.1054 19.5196 20 19.2652 20 19C20 18.7348 20.1054 18.4804 20.2929 18.2929C20.4804 18.1054 20.7348 18 21 18H24C24.5304 18 25.0391 17.7893 25.4142 17.4142C25.7893 17.0391 26 16.5304 26 16C26 15.4696 25.7893 14.9609 25.4142 14.5858C25.0391 14.2107 24.5304 14 24 14H21C20.7348 14 20.4804 13.8946 20.2929 13.7071C20.1054 13.5196 20 13.2652 20 13C20 12.7348 20.1054 12.4804 20.2929 12.2929C20.4804 12.1054 20.7348 12 21 12H24C25.0609 12 26.0783 12.4214 26.8284 13.1716C27.5786 13.9217 28 14.9391 28 16C28 17.0609 27.5786 18.0783 26.8284 18.8284C26.0783 19.5786 25.0609 20 24 20Z" fill="#B78F8F"/>
<path d="M21 10H5C4.73478 10 4.48043 10.1054 4.29289 10.2929C4.10536 10.4804 4 10.7348 4 11V17.94C4.00265 20.0768 4.85267 22.1254 6.36364 23.6364C7.87461 25.1473 9.92317 25.9974 12.06 26H13.94C16.0768 25.9974 18.1254 25.1473 19.6364 23.6364C21.1473 22.1254 21.9974 20.0768 22 17.94V11C22 10.7348 21.8946 10.4804 21.7071 10.2929C21.5196 10.1054 21.2652 10 21 10Z" fill="#B78F8F"/>
<path d="M17 29H9C8.73478 29 8.48043 28.8946 8.29289 28.7071C8.10536 28.5196 8 28.2652 8 28C8 27.7348 8.10536 27.4804 8.29289 27.2929C8.48043 27.1054 8.73478 27 9 27H17C17.2652 27 17.5196 27.1054 17.7071 27.2929C17.8946 27.4804 18 27.7348 18 28C18 28.2652 17.8946 28.5196 17.7071 28.7071C17.5196 28.8946 17.2652 29 17 29Z" fill="#CCCCCC"/>
<path d="M8.55999 9C8.29478 9 8.04042 8.89464 7.85289 8.70711C7.66535 8.51957 7.55999 8.26522 7.55999 8C7.54416 7.17043 7.72222 6.34862 8.07999 5.6C8.3319 5.10516 8.45568 4.55505 8.43999 4C8.43999 3.73478 8.54535 3.48043 8.73288 3.29289C8.92042 3.10536 9.17477 3 9.43999 3C9.70521 3 9.95956 3.10536 10.1471 3.29289C10.3346 3.48043 10.44 3.73478 10.44 4C10.4558 4.82957 10.2778 5.65138 9.91999 6.4C9.66808 6.89484 9.5443 7.44495 9.55999 8C9.55999 8.26522 9.45464 8.51957 9.2671 8.70711C9.07956 8.89464 8.82521 9 8.55999 9Z" fill="#C0C0C0"/>
<path d="M12.56 9C12.2948 9 12.0404 8.89464 11.8529 8.70711C11.6653 8.51957 11.56 8.26522 11.56 8C11.5442 7.17043 11.7222 6.34862 12.08 5.6C12.3319 5.10516 12.4557 4.55505 12.44 4C12.44 3.73478 12.5453 3.48043 12.7329 3.29289C12.9204 3.10536 13.1748 3 13.44 3C13.7052 3 13.9596 3.10536 14.1471 3.29289C14.3346 3.48043 14.44 3.73478 14.44 4C14.4558 4.82957 14.2778 5.65138 13.92 6.4C13.6681 6.89484 13.5443 7.44495 13.56 8C13.56 8.26522 13.4546 8.51957 13.2671 8.70711C13.0796 8.89464 12.8252 9 12.56 9Z" fill="#C0C0C0"/>
<path d="M16.56 9C16.2948 9 16.0404 8.89464 15.8529 8.70711C15.6653 8.51957 15.56 8.26522 15.56 8C15.5442 7.17043 15.7222 6.34862 16.08 5.6C16.3319 5.10516 16.4557 4.55505 16.44 4C16.44 3.73478 16.5453 3.48043 16.7329 3.29289C16.9204 3.10536 17.1748 3 17.44 3C17.7052 3 17.9596 3.10536 18.1471 3.29289C18.3346 3.48043 18.44 3.73478 18.44 4C18.4558 4.82957 18.2778 5.65138 17.92 6.4C17.6681 6.89484 17.5443 7.44495 17.56 8C17.56 8.26522 17.4546 8.51957 17.2671 8.70711C17.0796 8.89464 16.8252 9 16.56 9Z" fill="#C0C0C0"/>
</svg>
