<svg width="32" height="32" viewBox="0 0 32 32" fill="none" xmlns="http://www.w3.org/2000/svg">
<path d="M7.5 12.43C8.9651 12.3888 10.4062 12.8085 11.62 13.63C12.1533 12.6612 12.9927 11.8966 14.0069 11.4557C15.0211 11.0149 16.1528 10.9227 17.225 11.1936C18.2972 11.4645 19.2493 12.0832 19.9324 12.9529C20.6154 13.8226 20.9909 14.8942 21 16C21 16.64 22.36 17.57 24.5 17.57C26.64 17.57 28 16.64 28 16C28.001 13.0786 26.9362 10.2571 25.0053 8.06475C23.0745 5.87237 20.4101 4.45967 17.512 4.09158C14.6138 3.72348 11.6809 4.42527 9.26331 6.06533C6.84568 7.7054 5.10937 10.1711 4.38 13C5.36959 12.597 6.43183 12.4029 7.5 12.43Z" fill="#866539"/>
<path d="M24.5 19.57C23.0349 19.6112 21.5938 19.1915 20.38 18.37C19.8467 19.3388 19.0073 20.1034 17.9931 20.5443C16.9789 20.9851 15.8472 21.0773 14.775 20.8064C13.7028 20.5355 12.7507 19.9168 12.0677 19.0471C11.3846 18.1775 11.0091 17.1058 11 16C11 15.36 9.64 14.43 7.5 14.43C5.36 14.43 4 15.36 4 16C3.99901 18.9215 5.06379 21.7429 6.99466 23.9353C8.92553 26.1277 11.5899 27.5404 14.488 27.9085C17.3862 28.2766 20.3191 27.5748 22.7367 25.9347C25.1543 24.2946 26.8906 21.8289 27.62 19C26.6304 19.4031 25.5682 19.5971 24.5 19.57Z" fill="#FDBA55"/>
<path d="M14 8H13C12.7348 8 12.4804 7.89464 12.2929 7.70711C12.1054 7.51957 12 7.26522 12 7C12 6.73478 12.1054 6.48043 12.2929 6.29289C12.4804 6.10536 12.7348 6 13 6H14C14.2652 6 14.5196 6.10536 14.7071 6.29289C14.8946 6.48043 15 6.73478 15 7C15 7.26522 14.8946 7.51957 14.7071 7.70711C14.5196 7.89464 14.2652 8 14 8Z" fill="#65F7C4"/>
<path d="M18 9C17.7348 9 17.4804 8.89464 17.2929 8.70711C17.1054 8.51957 17 8.26522 17 8V7C17 6.73478 17.1054 6.48043 17.2929 6.29289C17.4804 6.10536 17.7348 6 18 6C18.2652 6 18.5196 6.10536 18.7071 6.29289C18.8946 6.48043 19 6.73478 19 7V8C19 8.26522 18.8946 8.51957 18.7071 8.70711C18.5196 8.89464 18.2652 9 18 9Z" fill="white"/>
<path d="M21 11C20.7348 11 20.4804 10.8946 20.2929 10.7071C20.1054 10.5196 20 10.2652 20 10V9C20 8.73478 20.1054 8.48043 20.2929 8.29289C20.4804 8.10536 20.7348 8 21 8C21.2652 8 21.5196 8.10536 21.7071 8.29289C21.8946 8.48043 22 8.73478 22 9V10C22 10.2652 21.8946 10.5196 21.7071 10.7071C21.5196 10.8946 21.2652 11 21 11Z" fill="#E5B745"/>
<path d="M24 14H23C22.7348 14 22.4804 13.8946 22.2929 13.7071C22.1054 13.5196 22 13.2652 22 13C22 12.7348 22.1054 12.4804 22.2929 12.2929C22.4804 12.1054 22.7348 12 23 12H24C24.2652 12 24.5196 12.1054 24.7071 12.2929C24.8946 12.4804 25 12.7348 25 13C25 13.2652 24.8946 13.5196 24.7071 13.7071C24.5196 13.8946 24.2652 14 24 14Z" fill="#65F7C4"/>
<path d="M10 11C9.73478 11 9.48043 10.8946 9.29289 10.7071C9.10536 10.5196 9 10.2652 9 10V9C9 8.73478 9.10536 8.48043 9.29289 8.29289C9.48043 8.10536 9.73478 8 10 8C10.2652 8 10.5196 8.10536 10.7071 8.29289C10.8946 8.48043 11 8.73478 11 9V10C11 10.2652 10.8946 10.5196 10.7071 10.7071C10.5196 10.8946 10.2652 11 10 11Z" fill="#E5B745"/>
</svg>
