<svg width="32" height="32" viewBox="0 0 32 32" fill="none" xmlns="http://www.w3.org/2000/svg">
<path d="M22 5H19V4C19 3.73478 18.8946 3.48043 18.7071 3.29289C18.5196 3.10536 18.2652 3 18 3H14C13.7348 3 13.4804 3.10536 13.2929 3.29289C13.1054 3.48043 13 3.73478 13 4V5H10C9.73478 5 9.48043 5.10536 9.29289 5.29289C9.10536 5.48043 9 5.73478 9 6V10C9 10.2652 9.10536 10.5196 9.29289 10.7071C9.48043 10.8946 9.73478 11 10 11H22C22.2652 11 22.5196 10.8946 22.7071 10.7071C22.8946 10.5196 23 10.2652 23 10V6C23 5.73478 22.8946 5.48043 22.7071 5.29289C22.5196 5.10536 22.2652 5 22 5Z" fill="#FEDA00"/>
<path d="M25.45 24L27 10.11C27.0171 9.97042 27.0045 9.82881 26.9632 9.6944C26.9218 9.56 26.8526 9.43583 26.76 9.33C26.6643 9.22388 26.5469 9.13951 26.4158 9.08259C26.2847 9.02566 26.1429 8.9975 26 9H6C5.85878 8.99893 5.71892 9.02778 5.58965 9.08466C5.46038 9.14154 5.34462 9.22515 5.25 9.33C5.15741 9.43583 5.08817 9.56 5.04681 9.6944C5.00546 9.82881 4.99292 9.97042 5.01 10.11L6.55 24H25.45Z" fill="#FF4B57"/>
<path d="M6.76999 26L6.99999 28.11C7.02718 28.3557 7.14442 28.5827 7.3291 28.747C7.51377 28.9114 7.75277 29.0015 7.99999 29H24C24.2472 29.0015 24.4862 28.9114 24.6709 28.747C24.8556 28.5827 24.9728 28.3557 25 28.11L25.23 26H6.76999Z" fill="#FF4B57"/>
<path d="M16 22C18.2091 22 20 20.2091 20 18C20 15.7909 18.2091 14 16 14C13.7909 14 12 15.7909 12 18C12 20.2091 13.7909 22 16 22Z" fill="white"/>
</svg>
