<svg width="32" height="32" viewBox="0 0 32 32" fill="none" xmlns="http://www.w3.org/2000/svg">
<path d="M12 14H6V18H12V14Z" fill="#53B03C"/>
<path d="M18 6H14V12H18V6Z" fill="#53B03C"/>
<path d="M26 12V8C26 7.46957 25.7893 6.96086 25.4142 6.58579C25.0391 6.21071 24.5304 6 24 6H20V12H26Z" fill="#53B03C"/>
<path d="M18 14H14V18H18V14Z" fill="#53B03C"/>
<path d="M26 14H20V18H26V14Z" fill="#53B03C"/>
<path d="M12 6H8C7.46957 6 6.96086 6.21071 6.58579 6.58579C6.21071 6.96086 6 7.46957 6 8V12H12V6Z" fill="#53B03C"/>
<path d="M20 26H24C24.5304 26 25.0391 25.7893 25.4142 25.4142C25.7893 25.0391 26 24.5304 26 24V20H20V26Z" fill="#53B03C"/>
<path d="M18 20H14V26H18V20Z" fill="#53B03C"/>
<path d="M6 20V24C6 24.5304 6.21071 25.0391 6.58579 25.4142C6.96086 25.7893 7.46957 26 8 26H12V20H6Z" fill="#53B03C"/>
</svg>
